<svg width="250" height="187" xmlns="http://www.w3.org/2000/svg" xml:space="preserve" version="1.1">

 <g>
  <title>Layer 1</title>
  <path id="svg_1" fill="#367C2B" clip-rule="evenodd" fill-rule="evenodd" 
  d="m213.2,20.2c-26.3,-12.9 -56.6,-20.2 -88.2,-20.2c-31.7,0 -62,7.3 -88.4,20.3c-9.6,23.2 -14.5,48.1 -14.5,73.2c0,25.9 5.2,50.5 14.5,73.2c26.4,
  13 56.7,20.3 88.4,20.3c31.6,0 61.9,-7.3 88.3,-20.2c9.6,-23.2 14.6,-48.1 14.6,-73.3c-0.1,-25.9 -5.3,-50.6 -14.7,-73.3l0,0z" class="st0"/>
  <path id="svg_2" fill="#FFDE00" clip-rule="evenodd" fill-rule="evenodd" 
  d="m96.99919,72.3c-4.5,9 -7.4,18.7 -8.4,28.7c-0.4,0 -2.5,0.2 -2.5,0.2c-8.9,0.8 -18,1.5 -26.9,4.9l0.6,3.6c14.5,18 36.5,28.9 36.7,29l0.5,
  -0.5l-4.7,-7.6c-1.1,-0.9 -4.1,-1.5 -4.2,-1.5c-9.9,-3.3 -16.8,-16.2 -18,-18.4c8.2,0 15.3,2.3 22.2,4.6c4.6,1.5 8.9,2.9 13.3,3.7c7.8,1.3 16,
  -0.2 23.4,-1.1c6,-0.7 11.8,-0.7 17.6,-0.3c0.7,0.8 6.8,8.2 12.6,11.3c7.3,3.8 28.5,10.2 29.6,10.5c0.4,0.4 8.6,8.6 13.6,18.2c-23.8,10.9
   -50.5,16.7 -77.4,16.7c-26.9,0 -53.8,-5.8 -77.6,-16.9c-7.9,-20.3 -11.9,-42 -11.9,-63.8c0,-21.9 4,-43.4 11.9,-63.8c23.9,-11.1 50.7,-16.9 77.6,
   -16.9c26.9,0 53.7,5.8 77.5,16.8c7.9,20.4 11.9,42 11.9,63.9c0,20.1 -3.3,39.8 -9.9,58.5c-7.6,-13.1 -10.6,-17.1 -10.6,-17.1c-0.1,-0.1 -10.7,
   -5.6 -13.3,-7.9c-2.1,-1.8 -3.1,-5.5 -4.2,-9.8c-1.6,-5.9 -3.6,-13.2 -9.4,-19.3l6.4,-2.6c-1.8,-12.4 -16.4,-20.4 -16.5,-20.4l-0.8,0.4c5.6,7
    7.2,12.9 7.2,16.5c0,1.8 -0.3,3.1 -0.4,3.6c-1.7,-0.6 -12.4,-4.1 -36.9,-3.2c-3.6,0.1 -8.7,0 -11.8,-3c-1.7,-1.7 -2.6,-4.1 -2.6,-7.2l0,0c0,
    -8.5 3.6,-19.9 4.1,-21.5l6.4,0.8c7.6,-4.2 10.6,-7.9 11,-8.4l-0.4,-0.4c-6.5,0.8 -15,2.5 -15,2.5c0.6,-1.5 2.3,-6.4 2.3,-11.9c0,-6 -2,-12.7 -9.6,
    -16.6l-0.8,0.4c0.1,0.1 4.4,4.8 4.4,11.3c0,1.8 -0.4,3.7 -1.2,5.8c-2.5,-1 -3.5,-1.1 -6.5,-1.2c-1.4,-5.1 -5.9,-9.4 -12,-11.6l-0.7,0.4c0.1,0 6.5,4.6
     6.8,11.3c-3.2,0.3 -4.6,0.6 -8.6,1.8c-1.7,-2.8 -5.5,-4.8 -10.3,-5.4l-0.6,0.5c0.1,0 5.7,2 6.9,6.3c-3.5,1.6 -7.1,4.1 -9.6,6.1l0.2,0.9c14.6,
     -5.7 28.2,-7.3 31.7,-3.2c0.6,0.7 0.9,1.6 0.9,2.5c0,1.2 -0.5,2.6 -1.4,4.2c-7.2,1.6 -18,4.6 -26.9,8l1.2,3.7c0,0 8.9,1.8 12.3,2.5c0.2,0 1.4,
     0.1 0.8,1.4l0,0zm110,-46.6c-24.6,-11.6 -52.7,-18.1 -82,-18.1c-29.3,0 -57.4,6.5 -82.1,18.2c-8.4,21.6 -12.8,44.6 -12.8,67.8c0,23.8 4.5,46.6
      12.8,67.6c24.7,11.7 52.8,18.2 82.1,18.2c29.2,0 57.4,-6.5 82,-18.1c8.5,-21.5 12.9,-44.5 12.9,-67.7c0.1,-23.9 -4.5,-46.8 -12.9,-67.9l0,0z"
       class="st1"/>
 </g>
</svg>