<svg width="14" height="12" viewBox="0 0 14 12" fill="none" xmlns="http://www.w3.org/2000/svg">
<path fill-rule="evenodd" clip-rule="evenodd" d="M10.0817 6.09671H11.5033L10.1545 2.92114L8.57665 5.1666C8.61337 5.38543 8.65117 5.6097 8.69178 5.84869L8.69225 5.85166H8.69924V8.12666C8.69924 8.20398 8.63656 8.26666 8.55924 8.26666H0.859238C0.781918 8.26666 0.719238 8.20398 0.719238 8.12666V5.79916C0.719238 5.72184 0.781918 5.65916 0.859238 5.65916H2.31174V4.69666C2.31174 4.61934 2.37442 4.55666 2.45174 4.55666H4.84924V3.19166C4.84924 3.11434 4.91192 3.05166 4.98924 3.05166H8.07298L9.60209 0.875594C9.68634 0.708872 9.82772 0.569899 10.0131 0.491155C10.2156 0.405168 10.4333 0.406819 10.6239 0.47903C10.6876 0.502819 10.7493 0.535038 10.8076 0.575956C10.9498 0.675913 11.0503 0.813144 11.1051 0.965145L13.2158 5.9345C13.2559 6.02904 13.277 6.1269 13.2806 6.22377C13.281 6.22803 13.2812 6.23235 13.2812 6.23671V8.70421C13.2812 8.78153 13.2186 8.84421 13.1412 8.84421H11.0617C10.4432 8.84421 9.94174 8.34276 9.94174 7.72421V6.23671C9.94174 6.15939 10.0044 6.09671 10.0817 6.09671ZM12.6762 6.09671H12.1117L10.5337 2.38148L10.8856 1.88076L12.6762 6.09671ZM10.5727 1.14415C10.5454 1.07972 10.495 1.03206 10.4353 1.00666C10.3281 0.962897 10.2011 0.997157 10.1317 1.09594L10.0901 1.1551C10.0677 1.21518 10.0674 1.28361 10.0945 1.34728L10.2759 1.77441L10.5474 1.38805C10.5947 1.3207 10.6047 1.23833 10.5818 1.16545L10.5727 1.14415ZM8.32545 3.66639L9.66275 1.76328L9.89668 2.31406L8.44504 4.37988C8.40691 4.15175 8.3677 3.9174 8.32545 3.66639ZM7.74833 3.61168C7.8097 3.97554 7.86525 4.30795 7.91958 4.63304L7.92051 4.63862L7.92061 4.63921L7.92112 4.64225C7.98779 5.04117 8.05267 5.42943 8.12427 5.85166H8.13924V7.70666H5.40924V3.61166L7.74833 3.61168ZM4.84924 6.21916H1.27924V7.70666H4.84924V6.21916ZM2.87174 5.11666V5.64166H4.81424V5.11666H2.87174ZM10.5017 6.65671V7.72421C10.5017 8.03349 10.7525 8.28421 11.0617 8.28421H12.7212V6.65671H10.5017Z" fill="white" fill-opacity="0.85"/>
<path d="M2.34674 10.7693C2.66568 10.7693 2.92424 10.5107 2.92424 10.1918C2.92424 9.87285 2.66568 9.6143 2.34674 9.6143C2.02779 9.6143 1.76924 9.87285 1.76924 10.1918C1.76924 10.5107 2.02779 10.7693 2.34674 10.7693Z" fill="white" fill-opacity="0.85"/>
<path d="M7.71924 10.1918C7.71924 10.5107 7.46068 10.7693 7.14174 10.7693C6.82279 10.7693 6.56424 10.5107 6.56424 10.1918C6.56424 9.87285 6.82279 9.6143 7.14174 9.6143C7.46068 9.6143 7.71924 9.87285 7.71924 10.1918Z" fill="white" fill-opacity="0.85"/>
<path fill-rule="evenodd" clip-rule="evenodd" d="M0.999238 10.1918C0.999238 9.42826 1.6182 8.8093 2.38174 8.8093H7.10674C7.87027 8.8093 8.48924 9.42826 8.48924 10.1918C8.48924 10.9553 7.87027 11.5743 7.10674 11.5743H2.38174C1.6182 11.5743 0.999238 10.9553 0.999238 10.1918ZM2.38174 9.3693H7.10674C7.56099 9.3693 7.92924 9.73754 7.92924 10.1918C7.92924 10.6461 7.56099 11.0143 7.10674 11.0143H2.38174C1.92748 11.0143 1.55924 10.6461 1.55924 10.1918C1.55924 9.73754 1.92748 9.3693 2.38174 9.3693Z" fill="white" fill-opacity="0.85"/>
</svg>
