<svg width="16" height="17" viewBox="0 0 16 17" fill="none" xmlns="http://www.w3.org/2000/svg">
<g clip-path="url(#clip0_3040_42542)">
<rect width="16" height="16" transform="translate(0.000976562 0.00488281)" fill="white" fill-opacity="0.01"/>
<path d="M13.3541 4.51582C13.4479 4.60957 13.501 4.73613 13.501 4.86895V14.5049C13.501 14.7814 13.2775 15.0049 13.001 15.0049H3.00098C2.72441 15.0049 2.50098 14.7814 2.50098 14.5049V1.50488C2.50098 1.22832 2.72441 1.00488 3.00098 1.00488H9.63691C9.76973 1.00488 9.89785 1.05801 9.9916 1.15176L13.3541 4.51582ZM12.3479 5.09863L9.40723 2.15801V5.09863H12.3479ZM9.89504 9.96207C9.65785 9.95426 9.40566 9.97254 9.11926 10.0083C8.73957 9.7741 8.48394 9.45238 8.30238 8.97973L8.3191 8.91129L8.33848 8.83035C8.40566 8.54707 8.44176 8.34035 8.45254 8.13191C8.46066 7.97457 8.45191 7.82941 8.42395 7.69488C8.37238 7.40441 8.16691 7.23457 7.90801 7.2241C7.6666 7.21426 7.44473 7.3491 7.38801 7.55801C7.29566 7.89582 7.34973 8.34035 7.54551 9.09848C7.29613 9.69301 6.9666 10.39 6.74551 10.7788C6.45035 10.931 6.22051 11.0694 6.02738 11.2229C5.7727 11.4255 5.61363 11.6338 5.56988 11.8525C5.54863 11.9539 5.58066 12.0864 5.65363 12.195C5.73645 12.3182 5.86113 12.3982 6.01066 12.4097C6.38801 12.4389 6.85176 12.0499 7.36379 11.1713C7.4152 11.1541 7.46957 11.136 7.53598 11.1135L7.72191 11.0507C7.83957 11.011 7.92488 10.9825 8.00926 10.9552C8.37488 10.8361 8.65144 10.761 8.90301 10.7182C9.3402 10.9522 9.84551 11.1057 10.1858 11.1057C10.4668 11.1057 10.6566 10.96 10.7252 10.7308C10.7854 10.5296 10.7377 10.2961 10.6083 10.1671C10.4746 10.0357 10.2286 9.97285 9.89504 9.96207ZM6.0202 11.9686V11.963L6.02223 11.9577C6.04509 11.8986 6.07443 11.8422 6.10973 11.7896C6.1766 11.6868 6.26863 11.5786 6.3827 11.4635C6.44395 11.4018 6.5077 11.3416 6.58254 11.2741C6.59926 11.2591 6.70613 11.1639 6.72613 11.1452L6.90066 10.9827L6.77379 11.1847C6.58129 11.4916 6.40723 11.7125 6.25816 11.8566C6.20332 11.9097 6.15504 11.9488 6.11598 11.9739C6.10308 11.9826 6.08943 11.99 6.0752 11.9961C6.06879 11.9988 6.06316 12.0004 6.05754 12.0008C6.0516 12.0016 6.04557 12.0008 6.04004 11.9985C6.03416 11.996 6.02914 11.9919 6.02561 11.9866C6.02207 11.9812 6.02019 11.975 6.0202 11.9686ZM7.98801 8.55801L7.9527 8.62051L7.93082 8.55207C7.88238 8.39848 7.84676 8.16707 7.83691 7.95832C7.82566 7.72082 7.84457 7.57832 7.91957 7.57832C8.02488 7.57832 8.07316 7.74707 8.07691 8.00098C8.08035 8.2241 8.0452 8.45629 7.98785 8.55801H7.98801ZM7.89723 9.47145L7.92113 9.40816L7.95379 9.46754C8.13645 9.79941 8.37348 10.0763 8.6341 10.2693L8.69035 10.3108L8.62176 10.3249C8.3666 10.3777 8.12895 10.4571 7.80395 10.5882C7.83785 10.5744 7.46613 10.7266 7.37207 10.7627L7.29004 10.7941L7.33379 10.7179C7.52676 10.3819 7.70504 9.97848 7.89707 9.47145H7.89723ZM10.36 10.663C10.2372 10.7114 9.97285 10.6682 9.50738 10.4694L9.38926 10.4191L9.51738 10.4097C9.88144 10.3827 10.1393 10.4027 10.2896 10.4577C10.3536 10.4811 10.3963 10.5107 10.4152 10.5444C10.4251 10.5604 10.4285 10.5796 10.4245 10.598C10.4206 10.6164 10.4096 10.6325 10.3939 10.643C10.384 10.6518 10.3725 10.6585 10.36 10.663Z" fill="#FF4D4F"/>
</g>
<defs>
<clipPath id="clip0_3040_42542">
<rect width="16" height="16" fill="white" transform="translate(0.000976562 0.00488281)"/>
</clipPath>
</defs>
</svg>
