<?xml version="1.0" encoding="utf-8"?>
<!-- Generator: Adobe Illustrator 23.0.0, SVG Export Plug-In . SVG Version: 6.00 Build 0)  -->
<svg version="1.1" id="Camada_1" xmlns="http://www.w3.org/2000/svg" xmlns:xlink="http://www.w3.org/1999/xlink" x="0px" y="0px"
	 viewBox="0 0 1000 187" style="enable-background:new 0 0 1000 187;" xml:space="preserve">
<style type="text/css">
	.st0{fill-rule:evenodd;clip-rule:evenodd;fill:#367C2B;}
	.st1{fill-rule:evenodd;clip-rule:evenodd;fill:#FFDE00;}
</style>
<path class="st0" d="M575.8,136.4V67.7h-15.8v46.3l-41.3-46.3H503v68.7h15.8V89.6l41.1,46.8L575.8,136.4L575.8,136.4z M902.7,97.2
	c3.3,0,8.8-1,8.8-7.8c0-4.9-3.2-7.6-8.8-7.6h-28.9v15.4L902.7,97.2z M929.7,136.4h-19.1l-19.1-25.1h-18.6v25.1h-15.8V67.7h44.7
	c15.4,0,24.6,8.2,24.6,22c0,8.3-4.6,17.6-16.6,20.5L929.7,136.4L929.7,136.4z M653.4,50.6c30.3,0,48.4,16.3,48.4,43.5
	c0,19.5-12.7,42.3-48.4,42.3h-38.2V50.6L653.4,50.6L653.4,50.6z M631.1,64.8v57.4h22.4c12.1,0,32.5-3.8,32.5-29
	c0-18.1-11.9-28.4-32.5-28.4H631.1z M952.8,122.3v-13.3h36.5V95h-36.5V81.8h47.2V67.7h-63v68.7h63v-14H952.8z M799.4,122.3v-13.3
	h36.5V95h-36.5V81.8h47.2V67.7h-63v68.7h63v-14H799.4z M725.8,122.3v-13.3h36.5V95h-36.5V81.8H773V67.7h-63v68.7h63v-14
	C773,122.3,725.8,122.3,725.8,122.3z M474.3,67.7V95h-41.2V67.7h-15.8v68.7h15.8v-27.3h41.2v27.3h15.8V67.7L474.3,67.7L474.3,67.7z
	 M367.3,124c-9.3,0-24.8-2.9-24.8-22.1c0-13.8,9.1-21.7,24.8-21.7c15.8,0,24.8,7.9,24.8,21.7C392.1,121.1,376.5,124,367.3,124z
	 M326.7,102.6c0,16.3,10.6,35.4,40.6,35.4c30,0,40.6-19.1,40.6-35.4c0-22.9-15.2-36.5-40.6-36.5C341.8,66.1,326.7,79.7,326.7,102.6z
	 M257.1,120.1c0,0,9,3.2,19,3.2c10.7,0,17.4-1.5,21.1-5.3c3.1-3.1,4.3-8.3,4.2-16.1V50.7h15.8v53.5c-0.2,23.7-11.7,33.8-38.3,33.8
	c-12.9,0-21.9-2.1-21.9-2.1V120.1L257.1,120.1z M191.1,20.2C164.8,7.3,134.5,0,102.9,0c-31.7,0-62,7.3-88.4,20.3
	C4.9,43.5,0,68.4,0,93.5c0,25.9,5.2,50.5,14.5,73.2c26.4,13,56.7,20.3,88.4,20.3c31.6,0,61.9-7.3,88.3-20.2
	c9.6-23.2,14.6-48.1,14.6-73.3C205.7,67.6,200.5,42.9,191.1,20.2L191.1,20.2z"/>
<path class="st1" d="M74.8,72.3c-4.5,9-7.4,18.7-8.4,28.7c-0.4,0-2.5,0.2-2.5,0.2c-8.9,0.8-18,1.5-26.9,4.9l0.6,3.6
	c14.5,18,36.5,28.9,36.7,29l0.5-0.5l-4.7-7.6c-1.1-0.9-4.1-1.5-4.2-1.5c-9.9-3.3-16.8-16.2-18-18.4c8.2,0,15.3,2.3,22.2,4.6
	c4.6,1.5,8.9,2.9,13.3,3.7c7.8,1.3,16-0.2,23.4-1.1c6-0.7,11.8-0.7,17.6-0.3c0.7,0.8,6.8,8.2,12.6,11.3c7.3,3.8,28.5,10.2,29.6,10.5
	c0.4,0.4,8.6,8.6,13.6,18.2c-23.8,10.9-50.5,16.7-77.4,16.7c-26.9,0-53.8-5.8-77.6-16.9c-7.9-20.3-11.9-42-11.9-63.8
	c0-21.9,4-43.4,11.9-63.8c23.9-11.1,50.7-16.9,77.6-16.9c26.9,0,53.7,5.8,77.5,16.8c7.9,20.4,11.9,42,11.9,63.9
	c0,20.1-3.3,39.8-9.9,58.5c-7.6-13.1-10.6-17.1-10.6-17.1c-0.1-0.1-10.7-5.6-13.3-7.9c-2.1-1.8-3.1-5.5-4.2-9.8
	c-1.6-5.9-3.6-13.2-9.4-19.3l6.4-2.6C149.4,83,134.8,75,134.7,75l-0.8,0.4c5.6,7,7.2,12.9,7.2,16.5c0,1.8-0.3,3.1-0.4,3.6
	c-1.7-0.6-12.4-4.1-36.9-3.2c-3.6,0.1-8.7,0-11.8-3c-1.7-1.7-2.6-4.1-2.6-7.2v0c0-8.5,3.6-19.9,4.1-21.5l6.4,0.8
	c7.6-4.2,10.6-7.9,11-8.4l-0.4-0.4c-6.5,0.8-15,2.5-15,2.5c0.6-1.5,2.3-6.4,2.3-11.9c0-6-2-12.7-9.6-16.6l-0.8,0.4
	c0.1,0.1,4.4,4.8,4.4,11.3c0,1.8-0.4,3.7-1.2,5.8c-2.5-1-3.5-1.1-6.5-1.2c-1.4-5.1-5.9-9.4-12-11.6l-0.7,0.4c0.1,0,6.5,4.6,6.8,11.3
	c-3.2,0.3-4.6,0.6-8.6,1.8c-1.7-2.8-5.5-4.8-10.3-5.4l-0.6,0.5c0.1,0,5.7,2,6.9,6.3c-3.5,1.6-7.1,4.1-9.6,6.1l0.2,0.9
	c14.6-5.7,28.2-7.3,31.7-3.2c0.6,0.7,0.9,1.6,0.9,2.5c0,1.2-0.5,2.6-1.4,4.2c-7.2,1.6-18,4.6-26.9,8l1.2,3.7c0,0,8.9,1.8,12.3,2.5
	C74.2,70.9,75.4,71,74.8,72.3L74.8,72.3z M184.8,25.7c-24.6-11.6-52.7-18.1-82-18.1c-29.3,0-57.4,6.5-82.1,18.2
	C12.3,47.4,7.9,70.4,7.9,93.6c0,23.8,4.5,46.6,12.8,67.6c24.7,11.7,52.8,18.2,82.1,18.2c29.2,0,57.4-6.5,82-18.1
	c8.5-21.5,12.9-44.5,12.9-67.7C197.8,69.7,193.2,46.8,184.8,25.7L184.8,25.7z"/>
</svg>
