<svg width="204" height="39" viewBox="0 0 204 39" fill="none" xmlns="http://www.w3.org/2000/svg">
<path d="M63.7297 12.4491C63.8383 12.1705 64.0051 11.8957 64.331 11.9507H69.3088C69.6347 11.9507 69.8559 12.1705 69.8559 12.5041V37.8379C69.8559 38.1126 69.6386 38.3913 69.2545 38.3913H64.2767C63.9508 38.3913 63.784 38.1676 63.6753 37.8379L62.8528 35.2947C61.103 37.6142 58.5346 38.9996 55.198 38.9996C47.322 39.0546 42.0765 33.4109 42.0765 25.2279C42.0765 17.0449 47.322 11.5111 55.198 11.5111C58.3135 11.5111 60.9362 12.5629 62.8528 15.1061L63.7297 12.4491V12.4491ZM55.5821 31.8096C59.5201 31.8096 62.1428 29.2114 62.201 25.2279C62.1467 21.2443 59.4658 18.6462 55.5821 18.6462C51.6984 18.6462 49.1338 21.2443 49.1338 25.2279C49.1338 29.2114 51.8109 31.8096 55.5821 31.8096Z" fill="white"/>
<path d="M85.9182 38.9996C77.825 38.9996 72.4126 33.4108 72.4126 25.2279C72.4126 16.1579 78.9734 11.566 85.701 11.4561C90.6205 11.4561 94.6672 13.1712 97.4568 17.4295C97.674 17.7042 97.674 18.0378 97.4568 18.2027L92.8631 21.9625C92.7544 22.0724 92.5915 22.1274 92.4828 22.1274C92.3199 22.1274 92.1026 22.0175 91.9901 21.7938C90.5701 19.7451 88.4905 18.5873 85.9221 18.5873C82.0384 18.5873 79.47 21.2443 79.47 25.2239C79.47 29.2036 82.0384 31.8606 85.9221 31.8606C89.2005 31.8606 90.896 30.0906 91.8272 28.9288C91.9901 28.764 92.2074 28.6502 92.4285 28.6502C92.5372 28.6502 92.7001 28.7051 92.8088 28.815L96.9097 32.7436C97.127 32.9085 97.1852 33.2421 97.0183 33.5168C94.6672 37.0569 90.8921 38.9957 85.9182 38.9957V38.9996Z" fill="white"/>
<path d="M100.37 38.3913C100.045 38.3913 99.8234 38.1676 99.8234 37.8928V0.557305C99.8234 0.223707 100.045 0 100.425 0H106.384C106.71 0 106.986 0.223707 106.986 0.557305V14.4428C108.627 12.5629 111.032 11.5111 113.985 11.5111C121.857 11.4562 127.106 17.041 127.106 25.2279C127.106 33.4148 121.857 38.9996 113.985 38.9996C110.652 38.9996 108.025 37.6142 106.276 35.2398L105.403 37.8379C105.294 38.1676 105.131 38.3913 104.801 38.3913H100.37V38.3913ZM106.989 25.2279C106.989 29.2114 109.666 31.8645 113.604 31.8645C117.542 31.8645 120.002 29.1526 120.002 25.2279C120.002 21.3032 117.434 18.5912 113.604 18.5912C109.775 18.5912 106.989 21.2482 106.989 25.2279Z" fill="white"/>
<path d="M143.665 32.2531C146.125 32.2531 147.983 31.4799 149.078 30.538C149.295 30.3692 149.462 30.2593 149.625 30.2593C149.788 30.2593 149.896 30.3692 150.009 30.4791L153.729 34.4077C153.947 34.6275 154.001 34.9611 153.784 35.2358C151.378 37.8928 147.716 38.9407 143.231 38.9957C134.974 38.9957 129.508 33.4619 129.508 25.224C129.508 16.986 134.92 11.4522 143.013 11.4522C151.107 11.4522 156.573 16.2639 156.519 27.4375C156.519 27.7672 156.302 28.0458 155.972 27.9909H137.108C137.931 30.5341 140.115 32.2492 143.669 32.2492L143.665 32.2531ZM149.023 22.8495C148.368 20.0865 146.342 18.2066 143.006 18.2066C139.669 18.2066 137.593 20.0865 136.938 22.8495H149.023Z" fill="white"/>
<path d="M32.4778 37.8379C32.4778 38.1676 32.2606 38.3913 31.8765 38.3913H25.8628C25.533 38.3913 25.3157 38.1676 25.3157 37.8379V12.504C25.3157 12.1704 25.533 11.9507 25.9171 11.9507H30.0181C30.5108 11.9507 30.7281 12.2843 30.7824 12.504L31.3837 14.1092C33.0792 12.504 35.3217 11.3973 37.9445 11.3973C39.64 11.3973 41.06 11.8368 41.8825 12.0605C42.2084 12.1704 42.3752 12.4491 42.2666 12.7827L40.7884 19.1407C40.7341 19.3605 40.5168 19.5292 40.2413 19.5292C40.187 19.5292 40.0784 19.5292 39.9697 19.4743C39.2597 19.1407 37.7272 18.7011 36.5788 18.7011C35.0696 18.7011 33.5099 19.5999 32.6098 21.2639C32.5244 21.4248 32.4778 21.6015 32.4778 21.7938V37.8379V37.8379Z" fill="white"/>
<path d="M0.492735 7.19002C0.221149 7.19002 0 7.02519 0 6.69159V0.553381C0 0.219782 0.221149 0 0.550932 0H27.6164C27.9423 0 28.1092 0.219782 28.1092 0.553381V6.69159C28.1092 7.02126 27.9462 7.19002 27.6164 7.19002H17.7734V37.8928C17.7734 38.1754 17.6104 38.3952 17.2806 38.3952H10.8285C10.5569 38.3952 10.3358 38.1754 10.3358 37.8928V7.19002H0.492735Z" fill="white"/>
<path d="M152.251 4.27005V5.70256C152.251 5.73395 152.228 5.7575 152.197 5.7575H151.65C151.619 5.7575 151.596 5.73395 151.596 5.70256V1.9741C151.596 1.93878 151.619 1.91916 151.646 1.91916H152.996C153.757 1.91916 154.211 2.4019 154.214 3.09264C154.211 3.66172 153.896 4.08166 153.361 4.2151L154.269 5.69078C154.292 5.73395 154.28 5.7575 154.23 5.7575H153.613C153.59 5.7575 153.57 5.74573 153.559 5.73003L152.717 4.27005H152.251V4.27005ZM152.251 2.54318V3.63817H153.008C153.283 3.63817 153.559 3.47726 153.559 3.09656C153.559 2.71587 153.287 2.54318 153.008 2.54318H152.251V2.54318Z" fill="white"/>
<path d="M152.767 0C150.672 0 148.973 1.71901 148.973 3.83834C148.973 5.95767 150.672 7.67669 152.767 7.67669C154.862 7.67669 156.562 5.95767 156.562 3.83834C156.562 1.71901 154.862 0 152.767 0ZM152.767 7.19787C150.932 7.19787 149.446 5.69472 149.446 3.83834C149.446 1.98197 150.932 0.478812 152.767 0.478812C154.602 0.478812 156.088 1.98197 156.088 3.83834C156.088 5.69472 154.602 7.19787 152.767 7.19787Z" fill="white"/>
<path d="M165.443 0H159.429C159.103 0 158.882 0.223707 158.882 0.557305V37.8418C158.882 38.1715 159.153 38.3952 159.429 38.3952H165.497C165.827 38.3952 166.044 38.1754 166.044 37.8418V0.557305C166.044 0.227632 165.827 0 165.443 0Z" fill="white"/>
<path d="M203.399 0H166.595C166.269 0 166.048 0.223707 166.048 0.557305V37.8418C166.048 38.1715 166.319 38.3952 166.595 38.3952H203.453C203.783 38.3952 204 38.1754 204 37.8418V0.557305C204 0.227632 203.783 0 203.399 0Z" fill="#FDBA12"/>
</svg>
