<svg width="76" height="15" viewBox="0 0 76 15" fill="none" xmlns="http://www.w3.org/2000/svg">
<path d="M23.93 5.23862C23.97 5.13618 24.0313 5.03517 24.1511 5.05537H25.9812C26.101 5.05537 26.1823 5.13618 26.1823 5.25882V14.5727C26.1823 14.6737 26.1024 14.7762 25.9612 14.7762H24.1311C24.0113 14.7762 23.95 14.6939 23.9101 14.5727L23.6077 13.6377C22.9644 14.4905 22.0201 14.9998 20.7934 14.9998C17.8978 15.02 15.9693 12.9451 15.9693 9.9367C15.9693 6.92826 17.8978 4.89377 20.7934 4.89377C21.9388 4.89377 22.903 5.28047 23.6077 6.21546L23.93 5.23862ZM20.9346 12.3564C22.3824 12.3564 23.3466 11.4012 23.368 9.9367C23.3481 8.47216 22.3624 7.51696 20.9346 7.51696C19.5068 7.51696 18.5639 8.47216 18.5639 9.9367C18.5639 11.4012 19.5481 12.3564 20.9346 12.3564Z" fill="white"/>
<path d="M32.0876 14.9998C29.1121 14.9998 27.1223 12.9451 27.1223 9.9367C27.1223 6.60216 29.5343 4.91397 32.0077 4.87357C33.8164 4.87357 35.3041 5.50411 36.3297 7.06966C36.4096 7.17066 36.4096 7.29331 36.3297 7.35391L34.6408 8.73621C34.6009 8.77661 34.541 8.79681 34.501 8.79681C34.4411 8.79681 34.3613 8.75641 34.3199 8.67416C33.7978 7.92097 33.0333 7.49531 32.089 7.49531C30.6612 7.49531 29.7169 8.47216 29.7169 9.93526C29.7169 11.3984 30.6612 12.3752 32.089 12.3752C33.2943 12.3752 33.9176 11.7245 34.26 11.2974C34.3199 11.2368 34.3998 11.1949 34.4811 11.1949C34.521 11.1949 34.5809 11.2151 34.6209 11.2555L36.1286 12.6999C36.2084 12.7605 36.2298 12.8831 36.1685 12.9841C35.3041 14.2856 33.9162 14.9984 32.0876 14.9984V14.9998Z" fill="white"/>
<path d="M37.4009 14.7762C37.2811 14.7762 37.1998 14.6939 37.1998 14.5929V0.866635C37.1998 0.743988 37.2811 0.661743 37.4209 0.661743H39.6118C39.7317 0.661743 39.8329 0.743988 39.8329 0.866635V5.97161C40.4363 5.28046 41.3207 4.89377 42.4062 4.89377C45.3003 4.87357 47.2302 6.92681 47.2302 9.9367C47.2302 12.9466 45.3003 14.9998 42.4062 14.9998C41.1809 14.9998 40.2152 14.4905 39.5719 13.6175L39.251 14.5727C39.211 14.6939 39.1511 14.7762 39.0299 14.7762H37.4009ZM39.8344 9.9367C39.8344 11.4012 40.8186 12.3766 42.2664 12.3766C43.7142 12.3766 44.6185 11.3796 44.6185 9.9367C44.6185 8.4938 43.6742 7.49676 42.2664 7.49676C40.8585 7.49676 39.8344 8.4736 39.8344 9.9367Z" fill="white"/>
<path d="M53.3181 12.5195C54.2224 12.5195 54.9057 12.2352 55.3079 11.8889C55.3878 11.8269 55.4491 11.7865 55.509 11.7865C55.5689 11.7865 55.6089 11.8269 55.6503 11.8673L57.0182 13.3116C57.098 13.3925 57.118 13.5151 57.0381 13.6161C56.1538 14.5929 54.8073 14.9782 53.1583 14.9984C50.123 14.9984 48.1132 12.9639 48.1132 9.93526C48.1132 6.90662 50.103 4.87213 53.0785 4.87213C56.0539 4.87213 58.0637 6.64113 58.0437 10.7491C58.0437 10.8703 57.9639 10.9727 57.8426 10.9525H50.9075C51.2099 11.8875 52.0129 12.5181 53.3195 12.5181L53.3181 12.5195ZM55.2879 9.06231C55.0469 8.04651 54.3023 7.35536 53.0756 7.35536C51.8489 7.35536 51.0858 8.04651 50.8447 9.06231H55.2879Z" fill="white"/>
<path d="M12.4404 14.5727C12.4404 14.6939 12.3605 14.7762 12.2193 14.7762H10.0084C9.88713 14.7762 9.80725 14.6939 9.80725 14.5727V5.25883C9.80725 5.13618 9.88713 5.05538 10.0283 5.05538H11.536C11.7172 5.05538 11.7971 5.17802 11.817 5.25883L12.0381 5.84897C12.6615 5.25883 13.4859 4.85193 14.4502 4.85193C15.0735 4.85193 15.5956 5.01353 15.898 5.09578C16.0178 5.13618 16.0791 5.23863 16.0392 5.36127L15.4957 7.69877C15.4758 7.77957 15.3959 7.84162 15.2946 7.84162C15.2746 7.84162 15.2347 7.84162 15.1948 7.82142C14.9337 7.69877 14.3703 7.53716 13.9481 7.53716C13.3932 7.53716 12.8198 7.86759 12.4889 8.47938C12.4575 8.53854 12.4404 8.60347 12.4404 8.67417V14.5727Z" fill="white"/>
<path d="M0.681153 3.30513C0.581305 3.30513 0.5 3.24453 0.5 3.12189V0.865192C0.5 0.742546 0.581305 0.661743 0.702548 0.661743H10.6531C10.7729 0.661743 10.8343 0.742546 10.8343 0.865192V3.12189C10.8343 3.24309 10.7743 3.30513 10.6531 3.30513H7.03433V14.5929C7.03433 14.6968 6.97442 14.7776 6.85318 14.7776H4.48108C4.38123 14.7776 4.29992 14.6968 4.29992 14.5929V3.30513H0.681153Z" fill="white"/>
<path d="M56.4747 2.23161V2.75826C56.4747 2.76981 56.4661 2.77847 56.4547 2.77847H56.2536C56.2422 2.77847 56.2336 2.76981 56.2336 2.75826V1.38751C56.2336 1.37452 56.2422 1.36731 56.2522 1.36731H56.7486C57.0281 1.36731 57.195 1.54479 57.1965 1.79874C57.195 2.00796 57.0795 2.16235 56.8827 2.21141L57.2164 2.75394C57.225 2.76981 57.2207 2.77847 57.2022 2.77847H56.9754C56.9668 2.77847 56.9597 2.77414 56.9554 2.76836L56.6459 2.23161H56.4747ZM56.4747 1.59673V1.9993H56.7528C56.8541 1.9993 56.9554 1.94014 56.9554 1.80018C56.9554 1.66022 56.8556 1.59673 56.7528 1.59673H56.4747Z" fill="white"/>
<path d="M56.6644 0.661743C55.8942 0.661743 55.2694 1.29373 55.2694 2.0729C55.2694 2.85206 55.8942 3.48405 56.6644 3.48405C57.4347 3.48405 58.0594 2.85206 58.0594 2.0729C58.0594 1.29373 57.4347 0.661743 56.6644 0.661743ZM56.6644 3.30802C55.9897 3.30802 55.4434 2.75539 55.4434 2.0729C55.4434 1.39041 55.9897 0.837777 56.6644 0.837777C57.3391 0.837777 57.8854 1.39041 57.8854 2.0729C57.8854 2.75539 57.3391 3.30802 56.6644 3.30802Z" fill="white"/>
<path d="M61.3245 0.661743H59.1135C58.9937 0.661743 58.9124 0.743988 58.9124 0.866635V14.5742C58.9124 14.6954 59.0123 14.7776 59.1135 14.7776H61.3444C61.4657 14.7776 61.5455 14.6968 61.5455 14.5742V0.866635C61.5455 0.745431 61.4657 0.661743 61.3245 0.661743Z" fill="white"/>
<path d="M75.2789 0.661743H61.7481C61.6283 0.661743 61.547 0.743988 61.547 0.866635V14.5742C61.547 14.6954 61.6468 14.7776 61.7481 14.7776H75.2989C75.4201 14.7776 75.5 14.6968 75.5 14.5742V0.866635C75.5 0.745431 75.4201 0.661743 75.2789 0.661743Z" fill="#FDBA12"/>
</svg>
