<svg width="33" height="32" viewBox="0 0 33 32" fill="none" xmlns="http://www.w3.org/2000/svg">
<g clip-path="url(#clip0_3819_313458)">
<rect width="32" height="32" transform="translate(0.5 0.000427246)" fill="white" fill-opacity="0.0"/>
<g clip-path="url(#clip1_3819_313458)">
<path fill-rule="evenodd" clip-rule="evenodd" d="M23.5426 16.2215H26.7919L23.709 8.96302L20.1024 14.0955C20.1863 14.5957 20.2727 15.1083 20.3655 15.6546L20.3666 15.6614H20.3826V20.8614C20.3826 21.0381 20.2393 21.1814 20.0626 21.1814H2.46258C2.28585 21.1814 2.14258 21.0381 2.14258 20.8614V15.5414C2.14258 15.3646 2.28585 15.2214 2.46258 15.2214H5.78258V13.0214C5.78258 12.8446 5.92585 12.7014 6.10258 12.7014H11.5826V9.58137C11.5826 9.40464 11.7258 9.26137 11.9026 9.26137H18.9511L22.4462 4.2875C22.6388 3.90642 22.962 3.58877 23.3857 3.40878C23.8485 3.21224 24.346 3.21601 24.7818 3.38107C24.9274 3.43544 25.0685 3.50909 25.2016 3.60261C25.5267 3.83109 25.7564 4.14476 25.8817 4.49219L30.7061 15.8507C30.7979 16.0668 30.846 16.2905 30.8544 16.5119C30.8552 16.5216 30.8557 16.5315 30.8557 16.5415V22.1815C30.8557 22.3582 30.7124 22.5015 30.5357 22.5015H25.7826C24.3687 22.5015 23.2226 21.3553 23.2226 19.9415V16.5415C23.2226 16.3647 23.3658 16.2215 23.5426 16.2215ZM29.4729 16.2215H28.1825L24.5757 7.72953L25.38 6.58502L29.4729 16.2215ZM24.6648 4.90135C24.6023 4.75407 24.4873 4.64514 24.3508 4.58709C24.1057 4.48705 23.8154 4.56536 23.6567 4.79115L23.5617 4.92636C23.5106 5.0637 23.5099 5.22011 23.5717 5.36565L23.9864 6.34193L24.6069 5.45883C24.7151 5.30489 24.738 5.11661 24.6855 4.95003L24.6648 4.90135ZM19.5282 10.6665L22.5849 6.3165L23.1196 7.57542L19.8016 12.2973C19.7144 11.7759 19.6248 11.2402 19.5282 10.6665ZM18.2091 10.5414C18.3493 11.3731 18.4763 12.1329 18.6005 12.876L18.6026 12.8887L18.6029 12.8901L18.604 12.897C18.7564 13.8088 18.9047 14.6963 19.0684 15.6614H19.1026V19.9014H12.8626V10.5414L18.2091 10.5414ZM11.5826 16.5014H3.42258V19.9014H11.5826V16.5014ZM7.06258 13.9814V15.1814H11.5026V13.9814H7.06258ZM24.5026 17.5015V19.9415C24.5026 20.6484 25.0757 21.2215 25.7826 21.2215H29.5757V17.5015H24.5026Z" fill="white" fill-opacity="0.85"/>
<path d="M5.86258 26.9017C6.59159 26.9017 7.18258 26.3107 7.18258 25.5817C7.18258 24.8527 6.59159 24.2617 5.86258 24.2617C5.13356 24.2617 4.54258 24.8527 4.54258 25.5817C4.54258 26.3107 5.13356 26.9017 5.86258 26.9017Z" fill="white" fill-opacity="0.85"/>
<path d="M18.1426 25.5817C18.1426 26.3107 17.5516 26.9017 16.8226 26.9017C16.0936 26.9017 15.5026 26.3107 15.5026 25.5817C15.5026 24.8527 16.0936 24.2617 16.8226 24.2617C17.5516 24.2617 18.1426 24.8527 18.1426 25.5817Z" fill="white" fill-opacity="0.85"/>
<path fill-rule="evenodd" clip-rule="evenodd" d="M2.78258 25.5817C2.78258 23.8365 4.19736 22.4217 5.94258 22.4217H16.7426C18.4878 22.4217 19.9026 23.8365 19.9026 25.5817C19.9026 27.3269 18.4878 28.7417 16.7426 28.7417H5.94258C4.19736 28.7417 2.78258 27.3269 2.78258 25.5817ZM5.94258 23.7017H16.7426C17.7809 23.7017 18.6226 24.5434 18.6226 25.5817C18.6226 26.62 17.7809 27.4617 16.7426 27.4617H5.94258C4.90428 27.4617 4.06258 26.62 4.06258 25.5817C4.06258 24.5434 4.90428 23.7017 5.94258 23.7017Z" fill="white" fill-opacity="0.85"/>
</g>
</g>
<defs>
<clipPath id="clip0_3819_313458">
<rect width="32" height="32" fill="white" transform="translate(0.5 0.000427246)"/>
</clipPath>
<clipPath id="clip1_3819_313458">
<rect width="32" height="32" fill="white" transform="translate(0.5 0.000427246)"/>
</clipPath>
</defs>
</svg>
