<svg width="800" height="150" xmlns="http://www.w3.org/2000/svg" version="1.1" xml:space="preserve">
 <g>
  <title>Layer 1</title>
  <g id="svg_1">
   <path id="svg_2" class="st0" d="m347.3,117.1l0,-68.7l-15.8,0l0,46.3l-41.3,-46.3l-15.7,0l0,68.7l15.8,0l0,-46.8l41.1,46.8l15.9,0l0,0zm326.9,
   -39.2c3.3,0 8.8,-1 8.8,-7.8c0,-4.9 -3.2,-7.6 -8.8,-7.6l-28.9,0l0,15.4l28.9,0zm27,39.2l-19.1,0l-19.1,-25.1l-18.6,0l0,25.1l-15.8,0l0,-68.7l44.7,
   0c15.4,0 24.6,8.2 24.6,22c0,8.3 -4.6,17.6 -16.6,20.5l19.9,26.2l0,0zm-276.3,-85.8c30.3,0 48.4,16.3 48.4,43.5c0,19.5 -12.7,42.3 -48.4,42.3l-38.2,
   0l0,-85.8l38.2,0l0,0zm-22.3,14.2l0,57.4l22.4,0c12.1,0 32.5,-3.8 32.5,-29c0,-18.1 -11.9,-28.4 -32.5,-28.4l-22.4,0zm321.7,57.5l0,-13.3l36.5,0l0,
   -14l-36.5,0l0,-13.2l47.2,0l0,-14.1l-63,0l0,68.7l63,0l0,-14l-47.2,0l0,-0.1zm-153.4,0l0,-13.3l36.5,0l0,-14l-36.5,0l0,-13.2l47.2,0l0,-14.1l-63,0l0,
   68.7l63,0l0,-14l-47.2,0l0,-0.1zm-73.6,0l0,-13.3l36.5,0l0,-14l-36.5,0l0,-13.2l47.2,0l0,-14.1l-63,0l0,68.7l63,0l0,-14c0,
   -0.1 -47.2,-0.1 -47.2,-0.1zm-251.5,-54.6l0,27.3l-41.2,0l0,-27.3l-15.8,0l0,68.7l15.8,0l0,-27.3l41.2,0l0,27.3l15.8,0l0,-68.7l-15.8,0l0,0zm-107,
   56.3c-9.3,0 -24.8,-2.9 -24.8,-22.1c0,-13.8 9.1,-21.7 24.8,-21.7c15.8,0 24.8,7.9 24.8,21.7c0,19.2 -15.6,22.1 -24.8,22.1zm-40.6,-21.4c0,16.3
    10.6,35.4 40.6,35.4c30,0 40.6,-19.1 40.6,-35.4c0,-22.9 -15.2,-36.5 -40.6,-36.5c-25.5,0 -40.6,13.6 -40.6,36.5zm-69.6,17.5c0,0 9,3.2 
    19,3.2c10.7,0 17.4,-1.5 21.1,-5.3c3.1,-3.1 4.3,-8.3 4.2,-16.1l0,-51.2l15.8,0l0,53.5c-0.2,23.7 -11.7,33.8 -38.3,33.8c-12.9,0 -21.9,-2.1 -21.9,-2.1l0,-15.8l0.1,0z" 
   fill-rule="evenodd" clip-rule="evenodd" fill="#367C2B"/>
  </g>
 </g>

</svg>