<svg width="65" height="64" viewBox="0 0 65 64" fill="none" xmlns="http://www.w3.org/2000/svg">
<g clip-path="url(#clip0_3819_313460)">
<rect width="64" height="64" transform="translate(0.5 0.000427246)" fill="white" fill-opacity="0.0"/>
<g clip-path="url(#clip1_3819_313460)">
<path fill-rule="evenodd" clip-rule="evenodd" d="M46.5871 32.4425H53.0857L46.9199 17.9256L39.7067 28.1906C39.8746 29.1909 40.0474 30.2162 40.233 31.3087L40.2352 31.3223H40.2671V41.7223C40.2671 42.0758 39.9806 42.3623 39.6271 42.3623H4.42711C4.07365 42.3623 3.78711 42.0758 3.78711 41.7223V31.0823C3.78711 30.7288 4.07365 30.4423 4.42711 30.4423H11.0671V26.0423C11.0671 25.6888 11.3536 25.4023 11.7071 25.4023H22.6671V19.1623C22.6671 18.8088 22.9536 18.5223 23.3071 18.5223H37.4042L44.3944 8.57457C44.7796 7.81242 45.4259 7.17711 46.2734 6.81714C47.1989 6.42405 48.194 6.4316 49.0655 6.76171C49.3567 6.87046 49.639 7.01775 49.9051 7.2048C50.5554 7.66175 51.0148 8.28909 51.2654 8.98395L60.9141 31.701C61.0977 32.1332 61.1939 32.5805 61.2107 33.0234C61.2124 33.0429 61.2134 33.0626 61.2134 33.0825V44.3625C61.2134 44.716 60.9268 45.0025 60.5734 45.0025H51.0671C48.2394 45.0025 45.9471 42.7102 45.9471 39.8825V33.0825C45.9471 32.729 46.2336 32.4425 46.5871 32.4425ZM58.4477 32.4425H55.867L48.6534 15.4586L50.2619 13.1696L58.4477 32.4425ZM48.8316 9.80226C48.7065 9.50772 48.4765 9.28986 48.2036 9.17374C47.7134 8.97367 47.1328 9.13029 46.8154 9.58187L46.6254 9.85229C46.5231 10.127 46.5217 10.4398 46.6453 10.7309L47.4747 12.6834L48.7158 10.9172C48.9321 10.6094 48.978 10.2328 48.873 9.89964L48.8316 9.80226ZM38.5583 21.3325L44.6717 12.6326L45.7411 15.1504L39.1051 24.5941C38.9308 23.5513 38.7515 22.48 38.5583 21.3325ZM35.9201 21.0824C36.2007 22.7458 36.4546 24.2653 36.703 25.7515L36.7072 25.777L36.7077 25.7797L36.71 25.7936C37.0148 27.6172 37.3114 29.3921 37.6387 31.3223H37.7071V39.8023H25.2271V21.0823L35.9201 21.0824ZM22.6671 33.0023H6.34711V39.8023H22.6671V33.0023ZM13.6271 27.9623V30.3623H22.5071V27.9623H13.6271ZM48.5071 35.0025V39.8825C48.5071 41.2964 49.6533 42.4425 51.0671 42.4425H58.6534V35.0025H48.5071Z" fill="#FDBA12"/>
<path d="M11.2271 53.8029C12.6851 53.8029 13.8671 52.621 13.8671 51.1629C13.8671 49.7049 12.6851 48.5229 11.2271 48.5229C9.76908 48.5229 8.58711 49.7049 8.58711 51.1629C8.58711 52.621 9.76908 53.8029 11.2271 53.8029Z" fill="#FDBA12"/>
<path d="M35.7871 51.1629C35.7871 52.621 34.6051 53.8029 33.1471 53.8029C31.6891 53.8029 30.5071 52.621 30.5071 51.1629C30.5071 49.7049 31.6891 48.5229 33.1471 48.5229C34.6051 48.5229 35.7871 49.7049 35.7871 51.1629Z" fill="#FDBA12"/>
<path fill-rule="evenodd" clip-rule="evenodd" d="M5.06711 51.1629C5.06711 47.6725 7.89667 44.8429 11.3871 44.8429H32.9871C36.4775 44.8429 39.3071 47.6725 39.3071 51.1629C39.3071 54.6534 36.4775 57.4829 32.9871 57.4829H11.3871C7.89667 57.4829 5.06711 54.6534 5.06711 51.1629ZM11.3871 47.4029H32.9871C35.0637 47.4029 36.7471 49.0863 36.7471 51.1629C36.7471 53.2395 35.0637 54.9229 32.9871 54.9229H11.3871C9.31052 54.9229 7.62711 53.2395 7.62711 51.1629C7.62711 49.0863 9.31052 47.4029 11.3871 47.4029Z" fill="#FDBA12"/>
</g>
</g>
<defs>
<clipPath id="clip0_3819_313460">
<rect width="64" height="64" fill="white" transform="translate(0.5 0.000427246)"/>
</clipPath>
<clipPath id="clip1_3819_313460">
<rect width="64" height="64" fill="white" transform="translate(0.5 0.000427246)"/>
</clipPath>
</defs>
</svg>
