<svg width="25" height="40" viewBox="0 0 25 40" fill="none" xmlns="http://www.w3.org/2000/svg">
<g clip-path="url(#clip0_4922_387925)">
<rect width="16" height="16" transform="translate(4)" fill="white" fill-opacity="0.01"/>
<g clip-path="url(#clip1_4922_387925)">
<path d="M7.24861 2H16.7513C16.8565 1.99999 16.9602 2.02486 17.0539 2.0726C17.1476 2.12034 17.2288 2.18958 17.2906 2.27467L19.8393 5.77867C19.8846 5.84101 19.9069 5.91714 19.9024 5.99408C19.8979 6.07102 19.8669 6.14402 19.8146 6.20067L12.2446 14.4013C12.1846 14.4662 12.1014 14.5045 12.0131 14.508C11.9249 14.5115 11.8389 14.4799 11.7739 14.42C11.7693 14.416 9.24061 11.6767 4.18527 6.20067C4.13301 6.14402 4.10199 6.07102 4.09749 5.99408C4.09299 5.91714 4.1153 5.84101 4.16061 5.77867L6.70927 2.27467C6.77113 2.18958 6.85224 2.12034 6.94597 2.0726C7.03971 2.02486 7.14341 1.99999 7.24861 2ZM7.58861 3.33333L5.72194 5.9L11.9999 12.7L18.2779 5.9L16.4113 3.33333H7.58861Z" fill="white"/>
</g>
</g>
<g clip-path="url(#clip2_4922_387925)">
<rect width="24" height="24" transform="translate(1 10)" fill="white" fill-opacity="0.01"/>
<g clip-path="url(#clip3_4922_387925)">
<path fill-rule="evenodd" clip-rule="evenodd" d="M18.2825 22.1658H20.7195L18.4073 16.7219L15.7024 20.5713C15.7653 20.9464 15.8301 21.3309 15.8998 21.7406L15.9006 21.7457H15.9125V25.6457C15.9125 25.7783 15.8051 25.8857 15.6725 25.8857H2.47254C2.34 25.8857 2.23254 25.7783 2.23254 25.6457V21.6557C2.23254 21.5232 2.34 21.4157 2.47254 21.4157H4.96254V19.7657C4.96254 19.6332 5.07 19.5257 5.20254 19.5257H9.31254V17.1857C9.31254 17.0532 9.42 16.9457 9.55254 16.9457H14.839L17.4603 13.2153C17.6047 12.9295 17.8471 12.6913 18.1649 12.5563C18.512 12.4089 18.8851 12.4117 19.212 12.5355C19.3211 12.5763 19.427 12.6315 19.5268 12.7016C19.7707 12.873 19.9429 13.1082 20.0369 13.3688L23.6552 21.8877C23.724 22.0498 23.7601 22.2175 23.7664 22.3836C23.767 22.3909 23.7674 22.3983 23.7674 22.4058V26.6358C23.7674 26.7683 23.6599 26.8758 23.5274 26.8758H19.9625C18.9022 26.8758 18.0425 26.0162 18.0425 24.9558V22.4058C18.0425 22.2732 18.15 22.1658 18.2825 22.1658ZM22.7303 22.1658H21.7625L19.0574 15.7968L19.6606 14.9384L22.7303 22.1658ZM19.1242 13.6757C19.0773 13.5652 18.9911 13.4835 18.8887 13.44C18.7049 13.365 18.4872 13.4237 18.3682 13.593L18.2969 13.6944C18.2586 13.7975 18.258 13.9148 18.3044 14.0239L18.6154 14.7561L19.0808 14.0938C19.1619 13.9783 19.1791 13.8371 19.1398 13.7122L19.1242 13.6757ZM15.2718 17.9995L17.5643 14.7371L17.9653 15.6812L15.4768 19.2226C15.4114 18.8316 15.3442 18.4298 15.2718 17.9995ZM14.2824 17.9057C14.3876 18.5295 14.4829 19.0993 14.576 19.6566L14.5776 19.6662L14.5778 19.6672L14.5786 19.6724C14.6929 20.3563 14.8041 21.0219 14.9269 21.7457H14.9525V24.9257H10.2725V17.9057L14.2824 17.9057ZM9.31254 22.3757H3.19254V24.9257H9.31254V22.3757ZM5.92254 20.4857V21.3857H9.25254V20.4857H5.92254ZM19.0025 23.1258V24.9558C19.0025 25.486 19.4324 25.9158 19.9625 25.9158H22.8074V23.1258H19.0025Z" fill="white"/>
<path d="M5.02254 30.1759C5.56931 30.1759 6.01254 29.7327 6.01254 29.1859C6.01254 28.6392 5.56931 28.1959 5.02254 28.1959C4.47578 28.1959 4.03254 28.6392 4.03254 29.1859C4.03254 29.7327 4.47578 30.1759 5.02254 30.1759Z" fill="white"/>
<path d="M14.2325 29.1859C14.2325 29.7327 13.7893 30.1759 13.2425 30.1759C12.6958 30.1759 12.2525 29.7327 12.2525 29.1859C12.2525 28.6392 12.6958 28.1959 13.2425 28.1959C13.7893 28.1959 14.2325 28.6392 14.2325 29.1859Z" fill="white"/>
<path fill-rule="evenodd" clip-rule="evenodd" d="M2.71254 29.1859C2.71254 27.877 3.77363 26.8159 5.08254 26.8159H13.1825C14.4915 26.8159 15.5525 27.877 15.5525 29.1859C15.5525 30.4949 14.4915 31.5559 13.1825 31.5559H5.08254C3.77363 31.5559 2.71254 30.4949 2.71254 29.1859ZM5.08254 27.7759H13.1825C13.9613 27.7759 14.5925 28.4072 14.5925 29.1859C14.5925 29.9647 13.9613 30.5959 13.1825 30.5959H5.08254C4.30382 30.5959 3.67254 29.9647 3.67254 29.1859C3.67254 28.4072 4.30382 27.7759 5.08254 27.7759Z" fill="white"/>
</g>
</g>
<defs>
<clipPath id="clip0_4922_387925">
<rect width="16" height="16" fill="white" transform="translate(4)"/>
</clipPath>
<clipPath id="clip1_4922_387925">
<rect width="16" height="16" fill="white" transform="translate(4)"/>
</clipPath>
<clipPath id="clip2_4922_387925">
<rect width="24" height="24" fill="white" transform="translate(1 10)"/>
</clipPath>
<clipPath id="clip3_4922_387925">
<rect width="24" height="24" fill="white" transform="translate(1 10)"/>
</clipPath>
</defs>
</svg>
