<svg width="350" height="80" xmlns="http://www.w3.org/2000/svg">
 <g>
  <title>Layer 1</title>
  <g id="svg_1">
   <path class="st0" d="m191.5,34l0,23.5l4,0l4,0l0,-23.5l0,-23.5l-4,0l-4,0l0,23.5z" fill="#367C2B" stroke-width="0.1" fill-rule="evenodd" clip-rule="evenodd" id="svg_2"/>
   <path class="st0" d="m3.5,15l0,3.5l6,0l6,0l0,19.5l0,19.5l4.5,0l4.5,0l0,-19.5l0,-19.5l6,0l6,0l0,-3.5l0,-3.5l-16.5,0l-16.5,0l0,3.5z" fill="#367C2B" stroke-width="0.1" fill-rule="evenodd" clip-rule="evenodd" id="svg_3"/>
   <path class="st0" d="m122.7,34.2l0.3,22.8l2.4,0.3c1.5,0.3 3,-0.3 3.7,-1.3c1.2,-1.6 1.4,-1.6 3.6,-0.1c5.5,3.9 13.9,1.1 17.5,-5.7c2.2,-4.4 2.2,-15.2 -0.1,-19.5c-3.2,-6.1 -11.7,-9.1 -16.2,-5.7c-1,0.8 -2.2,1.5 -2.6,1.5c-0.5,0 -0.8,-3.4 -0.8,-7.5l0,-7.5l-4,0l-4,0l0.2,22.7zm18.1,-2.7c4.7,3.7 4.5,16.4 -0.3,19c-2.6,1.4 -6.2,1.2 -8.2,-0.4c-1.5,-1.1 -1.8,-2.9 -1.8,-9.4c0,-7.2 0.2,-8.3 2.2,-9.6c3,-2.1 5,-2 8.1,0.4z" fill="#367C2B" stroke-width="0.1" fill-rule="evenodd" clip-rule="evenodd" id="svg_4"/>
   <path class="st0" d="m236.5,15.7c-1.7,6.2 -11.1,38.8 -11.7,40.4c-0.4,1.1 0.6,1.4 4,1.4l4.5,0l1.2,-5l1.2,-5.1l7.6,0.3l7.6,0.3l1.1,4.5c1.1,4.4 1.2,4.5 5.3,4.8c2.3,0.2 4.2,0 4.2,-0.5c0,-0.4 -2.8,-10.8 -6.2,-23.1l-6.3,-22.2l-5.7,0l-5.7,0l-1.1,4.2zm9.8,14.5c1.2,4.9 2.2,9.1 2.2,9.5c0,1.3 -10,0.9 -10,-0.3c0,-2.1 4.4,-17.9 5,-17.9c0.3,0 1.6,3.9 2.8,8.7z" fill="#367C2B" stroke-width="0.1" fill-rule="evenodd" clip-rule="evenodd" id="svg_5"/>
   <path class="st0" d="m48.3,25.1c-1.6,0.8 -2.8,1.9 -2.8,2.4c0,0.6 -0.4,1 -1,1c-0.5,0 -1,-0.9 -1,-2c0,-1.6 -0.7,-2 -3.5,-2l-3.5,0l0.2,16.2l0.3,16.3l3.8,0.3l3.7,0.3l0,-10.5c0,-9.6 0.2,-10.7 2.2,-12.6c1.3,-1.1 3.3,-2.3 4.5,-2.6c1.9,-0.5 2.3,-1.3 2.3,-4.5c0,-4.3 -0.9,-4.7 -5.2,-2.3z" fill="#367C2B" stroke-width="0.1" fill-rule="evenodd" clip-rule="evenodd" id="svg_6"/>
   <path class="st0" d="m62.3,25.5c-4.8,2.6 -5.2,3.4 -2.7,5.6c1.9,1.7 2.1,1.7 4.8,0.1c5.2,-3 10.1,-2 10.1,2.2c0,2.5 -0.5,2.8 -5.6,3.9c-7.3,1.5 -12,5 -12.8,9.6c-0.8,3.9 1.2,8.9 3.9,10c3,1.1 9.5,0.6 12.5,-0.9c2.7,-1.4 3,-1.4 3,0c0,1.1 1,1.5 3.5,1.5l3.5,0l0,-12.4c0,-6.7 -0.5,-13.8 -1.1,-15.6c-2.1,-5.8 -11.8,-7.8 -19.1,-4zm12.2,19.9c0,3.4 -0.4,4.1 -3.4,5.5c-3.8,1.8 -6.2,1.3 -7.1,-1.5c-0.9,-2.7 0.8,-5.2 4.7,-6.5c5.3,-2 5.8,-1.8 5.8,2.5z" fill="#367C2B" stroke-width="0.1" fill-rule="evenodd" clip-rule="evenodd" id="svg_7"/>
   <path class="st0" d="m97.5,24.2c-2.3,0.9 -6,4.5 -7.6,7.5c-1.9,3.7 -1.8,14.2 0.2,18.4c2.5,5.2 6.2,7.4 12.8,7.4c4.8,0 6,-0.4 9.1,-3.1c1.9,-1.7 3.5,-3.5 3.5,-3.9c0,-0.4 -1.2,-1.5 -2.6,-2.5c-2.5,-1.6 -2.6,-1.6 -4.9,0.9c-3.1,3.4 -7.9,3.5 -9.9,0.3c-2.1,-3.4 -2.8,-9.2 -1.6,-13.7c1.7,-6.3 6.3,-7.8 10.7,-3.4c2.3,2.3 2.8,2.4 5.4,1.4c3.4,-1.5 3.4,-1.3 1.2,-4.7c-2.8,-4.2 -11,-6.5 -16.3,-4.6z" fill="#367C2B" stroke-width="0.1" fill-rule="evenodd" clip-rule="evenodd" id="svg_8"/>
   <path class="st0" d="m163.6,25.3c-4.9,2.4 -7.6,8.2 -7.5,15.7c0.1,6.7 2,11.2 6,14.4c4.8,3.8 16.4,2.4 20.4,-2.4c1.1,-1.3 1,-1.8 -0.6,-3c-2.5,-1.9 -4.8,-1.9 -6.4,0c-1.7,2 -6.3,1.9 -8.9,-0.3c-1.1,-0.9 -2.4,-3.2 -2.7,-5l-0.6,-3.2l10.1,0l10.1,0l0,-4.1c0,-10.7 -10.4,-17 -19.9,-12.1zm11.3,6.4c2.9,4.1 2.1,4.8 -5,4.8c-6.3,0 -6.5,-0.1 -5.8,-2.3c1.1,-3.6 2.5,-4.7 6,-4.7c2.3,0 3.8,0.7 4.8,2.2z" fill="#367C2B" stroke-width="0.1" fill-rule="evenodd" clip-rule="evenodd" id="svg_9"/>
   <path class="st0" d="m271.8,24.9c-6.4,2.9 -8.7,11.4 -4.3,16.1l2.1,2.3l-2.5,2.5c-3.1,3.1 -3.3,5.1 -0.6,7.4c1.9,1.6 1.9,1.7 -0.5,3.9c-6.5,6 0.2,12.4 12.8,12.4c9.2,0 15.1,-4.2 14.5,-10.6c-0.4,-5.2 -3.5,-7.1 -12.8,-8.1c-5.9,-0.6 -7.5,-1.2 -7.8,-2.6c-0.3,-1.3 0.4,-1.7 3,-1.7c10,0 15.1,-4.4 14.6,-12.5c-0.3,-4.6 -0.1,-5 2,-5.3c1.7,-0.3 2.2,-0.9 2,-2.5c-0.2,-1.7 -0.9,-2.1 -2.8,-1.9c-4.6,0.4 -7.5,0.4 -12,-0.2c-3,-0.4 -5.6,-0.1 -7.7,0.8zm10.1,6.2c5,4.9 -2.4,12.4 -7.6,7.7c-3.6,-3.3 -1.3,-9.3 3.7,-9.3c1.3,0 3.1,0.7 3.9,1.6zm1.5,26.5c3.6,1.3 4,3.2 0.9,5.3c-3.2,2.2 -9.1,2 -11.9,-0.4l-2.4,-2l2.4,-2c2.6,-2.2 6.3,-2.5 11,-0.9z" fill="#367C2B" stroke-width="0.1" fill-rule="evenodd" clip-rule="evenodd" id="svg_10"/>
   <path class="st0" d="m308.9,26c-3,3 -3.4,3.1 -3.4,0.5c0,-1.6 -0.7,-2 -3.5,-2l-3.5,0l0,16.5l0,16.5l4,0l3.9,0l0.3,-11.3l0.3,-11.2l4.2,-2c3.8,-1.8 4.2,-2.3 4.3,-5.8c0,-3.1 -0.3,-3.7 -2,-3.7c-1.2,0 -3.2,1.1 -4.6,2.5z" fill="#367C2B" stroke-width="0.1" fill-rule="evenodd" clip-rule="evenodd" id="svg_11"/>
   <path class="st0" d="m325.5,25.3c-4.9,2.7 -7.5,8.3 -7.4,15.9c0.3,10.3 5.3,16.5 13.6,16.5c9.5,0 14.7,-6.1 14.8,-17.2c0,-13.1 -10.6,-20.7 -21,-15.2zm9.6,5c3.8,2.5 5,14 2,18.7c-3.4,5.2 -10.1,2.3 -11.3,-4.8c-1.5,-9.3 4,-17.5 9.3,-13.9z" fill="#367C2B" stroke-width="0.1" fill-rule="evenodd" clip-rule="evenodd" id="svg_12"/>
  </g>
 </g>

</svg>