<svg width="32" height="32" viewBox="0 0 32 32" fill="none" xmlns="http://www.w3.org/2000/svg">
<g clip-path="url(#clip0_3824_313994)">
<rect width="32" height="32" fill="white" fill-opacity="0.0"/>
<g clip-path="url(#clip1_3824_313994)">
<path d="M5.33398 29.3333C5.33398 26.5044 6.45779 23.7913 8.45818 21.7909C10.4586 19.7905 13.1717 18.6667 16.0007 18.6667C18.8296 18.6667 21.5427 19.7905 23.5431 21.7909C25.5435 23.7913 26.6673 26.5044 26.6673 29.3333H5.33398ZM16.0007 17.3333C11.5807 17.3333 8.00065 13.7533 8.00065 9.33334C8.00065 4.91334 11.5807 1.33334 16.0007 1.33334C20.4207 1.33334 24.0006 4.91334 24.0006 9.33334C24.0006 13.7533 20.4207 17.3333 16.0007 17.3333Z" fill="white" fill-opacity="0.85"/>
</g>
</g>
<defs>
<clipPath id="clip0_3824_313994">
<rect width="32" height="32" fill="white"/>
</clipPath>
<clipPath id="clip1_3824_313994">
<rect width="32" height="32" fill="white"/>
</clipPath>
</defs>
</svg>
