<svg width="32" height="32" viewBox="0 0 32 32" fill="none" xmlns="http://www.w3.org/2000/svg">
<g clip-path="url(#clip0_5526_390546)">
<rect width="32" height="32" fill="white" fill-opacity="0.01"/>
<g clip-path="url(#clip1_5526_390546)">
<path d="M16.0007 18.6667V21.3333C13.8789 21.3333 11.8441 22.1762 10.3438 23.6765C8.84351 25.1768 8.00065 27.2116 8.00065 29.3333H5.33398C5.33398 26.5044 6.45779 23.7912 8.45818 21.7909C10.4586 19.7905 13.1717 18.6667 16.0007 18.6667ZM16.0007 17.3333C11.5807 17.3333 8.00065 13.7533 8.00065 9.33333C8.00065 4.91333 11.5807 1.33333 16.0007 1.33333C20.4207 1.33333 24.0007 4.91333 24.0007 9.33333C24.0007 13.7533 20.4207 17.3333 16.0007 17.3333ZM16.0007 14.6667C18.9473 14.6667 21.334 12.28 21.334 9.33333C21.334 6.38666 18.9473 3.99999 16.0007 3.99999C13.054 3.99999 10.6673 6.38666 10.6673 9.33333C10.6673 12.28 13.054 14.6667 16.0007 14.6667ZM19.4607 25.0827C19.2916 24.3712 19.2916 23.6301 19.4607 22.9187L18.138 22.1547L19.4713 19.8453L20.794 20.6093C21.3249 20.1065 21.9666 19.7356 22.6673 19.5267V18H25.334V19.5267C26.0433 19.7373 26.6833 20.1133 27.2073 20.6093L28.53 19.8453L29.8633 22.1547L28.5407 22.9187C28.7095 23.6297 28.7095 24.3703 28.5407 25.0813L29.8633 25.8453L28.53 28.1547L27.2073 27.3907C26.6764 27.8935 26.0347 28.2644 25.334 28.4733V30H22.6673V28.4733C21.9666 28.2644 21.3249 27.8935 20.794 27.3907L19.4713 28.1547L18.138 25.8453L19.4607 25.0827ZM24.0007 26C24.5311 26 25.0398 25.7893 25.4149 25.4142C25.7899 25.0391 26.0007 24.5304 26.0007 24C26.0007 23.4696 25.7899 22.9609 25.4149 22.5858C25.0398 22.2107 24.5311 22 24.0007 22C23.4702 22 22.9615 22.2107 22.5864 22.5858C22.2114 22.9609 22.0007 23.4696 22.0007 24C22.0007 24.5304 22.2114 25.0391 22.5864 25.4142C22.9615 25.7893 23.4702 26 24.0007 26Z" fill="#B37FEB"/>
<path d="M16.5007 18.6667V18.1667H16.0007C13.0391 18.1667 10.1988 19.3431 8.10463 21.4373C6.01047 23.5315 4.83398 26.3717 4.83398 29.3333V29.8333H5.33398H8.00065H8.50065V29.3333C8.50065 27.3442 9.29083 25.4365 10.6974 24.03C12.1039 22.6235 14.0115 21.8333 16.0007 21.8333H16.5007V21.3333V18.6667ZM17.705 21.9047L17.455 22.3376L17.8879 22.5876L18.9005 23.1725C18.8117 23.7209 18.8116 24.2801 18.9004 24.8285L17.8882 25.4122L17.4548 25.6621L17.705 26.0953L19.0383 28.4047L19.2884 28.8378L19.7214 28.5876L20.7335 28.003C21.1637 28.3546 21.6479 28.6344 22.1673 28.8316V30V30.5H22.6673H25.334H25.834V30V28.8316C26.3534 28.6344 26.8376 28.3546 27.2678 28.003L28.2799 28.5876L28.7129 28.8378L28.963 28.4047L30.2963 26.0953L30.5463 25.6624L30.1134 25.4124L29.1008 24.8274C29.1895 24.2794 29.1895 23.7206 29.1008 23.1725L30.1134 22.5876L30.5463 22.3376L30.2963 21.9047L28.963 19.5953L28.7129 19.1622L28.2799 19.4124L27.2678 19.997C26.8415 19.6487 26.358 19.3669 25.834 19.1681V18V17.5H25.334H22.6673H22.1673V18V19.1684C21.6479 19.3656 21.1637 19.6454 20.7335 19.997L19.7214 19.4124L19.2884 19.1622L19.0383 19.5953L17.705 21.9047ZM7.50065 9.33333C7.50065 14.0295 11.3045 17.8333 16.0007 17.8333C20.6968 17.8333 24.5007 14.0295 24.5007 9.33333C24.5007 4.63719 20.6968 0.833328 16.0007 0.833328C11.3045 0.833328 7.50065 4.63719 7.50065 9.33333ZM20.834 9.33333C20.834 12.0039 18.6712 14.1667 16.0007 14.1667C13.3301 14.1667 11.1673 12.0039 11.1673 9.33333C11.1673 6.6628 13.3301 4.49999 16.0007 4.49999C18.6712 4.49999 20.834 6.6628 20.834 9.33333ZM25.0613 25.0607C24.78 25.342 24.3985 25.5 24.0007 25.5C23.6028 25.5 23.2213 25.342 22.94 25.0607C22.6587 24.7793 22.5007 24.3978 22.5007 24C22.5007 23.6022 22.6587 23.2206 22.94 22.9393C23.2213 22.658 23.6028 22.5 24.0007 22.5C24.3985 22.5 24.78 22.658 25.0613 22.9393C25.3426 23.2206 25.5007 23.6022 25.5007 24C25.5007 24.3978 25.3426 24.7793 25.0613 25.0607Z" stroke="black" stroke-opacity="0.4"/>
</g>
</g>
<defs>
<clipPath id="clip0_5526_390546">
<rect width="32" height="32" fill="white"/>
</clipPath>
<clipPath id="clip1_5526_390546">
<rect width="32" height="32" fill="white"/>
</clipPath>
</defs>
</svg>
