<svg width="32" height="32" viewBox="0 0 32 32" fill="none" xmlns="http://www.w3.org/2000/svg">
<g clip-path="url(#clip0_5790_58306)">
<path d="M16.0007 18.6666V21.3333C13.8789 21.3333 11.8441 22.1762 10.3438 23.6765C8.84351 25.1767 8.00065 27.2116 8.00065 29.3333H5.33398C5.33398 26.5043 6.45779 23.7912 8.45818 21.7908C10.4586 19.7905 13.1717 18.6666 16.0007 18.6666ZM16.0007 17.3333C11.5807 17.3333 8.00065 13.7533 8.00065 9.33331C8.00065 4.91331 11.5807 1.33331 16.0007 1.33331C20.4207 1.33331 24.0007 4.91331 24.0007 9.33331C24.0007 13.7533 20.4207 17.3333 16.0007 17.3333ZM16.0007 14.6666C18.9473 14.6666 21.334 12.28 21.334 9.33331C21.334 6.38665 18.9473 3.99998 16.0007 3.99998C13.054 3.99998 10.6673 6.38665 10.6673 9.33331C10.6673 12.28 13.054 14.6666 16.0007 14.6666ZM19.4607 25.0826C19.2916 24.3712 19.2916 23.6301 19.4607 22.9186L18.138 22.1546L19.4713 19.8453L20.794 20.6093C21.3249 20.1065 21.9666 19.7356 22.6673 19.5266V18H25.334V19.5266C26.0433 19.7373 26.6833 20.1133 27.2073 20.6093L28.53 19.8453L29.8633 22.1546L28.5407 22.9186C28.7095 23.6296 28.7095 24.3703 28.5407 25.0813L29.8633 25.8453L28.53 28.1546L27.2073 27.3906C26.6764 27.8935 26.0347 28.2643 25.334 28.4733V30H22.6673V28.4733C21.9666 28.2643 21.3249 27.8935 20.794 27.3906L19.4713 28.1546L18.138 25.8453L19.4607 25.0826ZM24.0007 26C24.5311 26 25.0398 25.7893 25.4149 25.4142C25.7899 25.0391 26.0007 24.5304 26.0007 24C26.0007 23.4695 25.7899 22.9608 25.4149 22.5858C25.0398 22.2107 24.5311 22 24.0007 22C23.4702 22 22.9615 22.2107 22.5864 22.5858C22.2114 22.9608 22.0007 23.4695 22.0007 24C22.0007 24.5304 22.2114 25.0391 22.5864 25.4142C22.9615 25.7893 23.4702 26 24.0007 26Z" fill="#ADC6FF"/>
</g>
<defs>
<clipPath id="clip0_5790_58306">
<rect width="32" height="32" fill="white"/>
</clipPath>
</defs>
</svg>
